<svg id="svg" version="1.1" width="400" height="400" viewBox="0 0 400 400" xmlns="http://www.w3.org/2000/svg" xmlns:xlink="http://www.w3.org/1999/xlink" ><g id="svgg"><path id="path0" d="M90.800 44.600 C 90.800 88.933,90.795 89.200,90.000 89.200 C 89.467 89.200,89.200 89.467,89.200 90.000 C 89.200 90.795,88.933 90.800,44.600 90.800 L 0.000 90.800 0.000 97.000 L 0.000 103.200 45.400 103.200 C 90.533 103.200,90.800 103.195,90.800 102.400 C 90.800 101.752,91.067 101.600,92.200 101.600 C 93.333 101.600,93.600 101.448,93.600 100.800 C 93.600 100.267,93.867 100.000,94.400 100.000 C 94.933 100.000,95.200 99.733,95.200 99.200 C 95.200 98.533,95.467 98.400,96.800 98.400 L 98.400 98.400 98.400 96.800 C 98.400 95.467,98.533 95.200,99.200 95.200 C 99.733 95.200,100.000 94.933,100.000 94.400 C 100.000 93.867,100.267 93.600,100.800 93.600 C 101.448 93.600,101.600 93.333,101.600 92.200 C 101.600 91.067,101.752 90.800,102.400 90.800 C 103.195 90.800,103.200 90.533,103.200 45.400 L 103.200 0.000 97.000 0.000 L 90.800 0.000 90.800 44.600 M143.600 45.400 C 143.600 90.533,143.605 90.800,144.400 90.800 C 145.103 90.800,145.200 91.067,145.200 93.000 C 145.200 94.933,145.297 95.200,146.000 95.200 C 146.667 95.200,146.800 95.467,146.800 96.800 C 146.800 98.133,146.933 98.400,147.600 98.400 C 148.133 98.400,148.400 98.667,148.400 99.200 C 148.400 99.733,148.667 100.000,149.200 100.000 C 149.733 100.000,150.000 100.267,150.000 100.800 C 150.000 101.333,150.267 101.600,150.800 101.600 C 151.333 101.600,151.600 101.867,151.600 102.400 C 151.600 102.933,151.867 103.200,152.400 103.200 C 152.933 103.200,153.200 103.467,153.200 104.000 C 153.200 104.667,153.467 104.800,154.800 104.800 C 156.133 104.800,156.400 104.933,156.400 105.600 C 156.400 106.303,156.667 106.400,158.600 106.400 C 160.533 106.400,160.800 106.497,160.800 107.200 C 160.800 107.995,161.067 108.000,200.800 108.000 C 240.533 108.000,240.800 107.995,240.800 107.200 C 240.800 106.497,241.067 106.400,243.000 106.400 C 244.933 106.400,245.200 106.303,245.200 105.600 C 245.200 104.933,245.467 104.800,246.800 104.800 C 248.133 104.800,248.400 104.667,248.400 104.000 C 248.400 103.467,248.667 103.200,249.200 103.200 C 249.733 103.200,250.000 102.933,250.000 102.400 C 250.000 101.867,250.267 101.600,250.800 101.600 C 251.333 101.600,251.600 101.333,251.600 100.800 C 251.600 100.267,251.867 100.000,252.400 100.000 C 252.933 100.000,253.200 99.733,253.200 99.200 C 253.200 98.667,253.467 98.400,254.000 98.400 C 254.667 98.400,254.800 98.133,254.800 96.800 C 254.800 95.467,254.933 95.200,255.600 95.200 C 256.303 95.200,256.400 94.933,256.400 93.000 C 256.400 91.067,256.497 90.800,257.200 90.800 C 257.995 90.800,258.000 90.533,258.000 45.400 L 258.000 0.000 254.000 0.000 L 250.000 0.000 250.000 44.600 C 250.000 88.933,249.995 89.200,249.200 89.200 C 248.552 89.200,248.400 89.467,248.400 90.600 C 248.400 91.733,248.248 92.000,247.600 92.000 C 247.067 92.000,246.800 92.267,246.800 92.800 C 246.800 93.333,246.533 93.600,246.000 93.600 C 245.467 93.600,245.200 93.867,245.200 94.400 C 245.200 94.933,244.933 95.200,244.400 95.200 C 243.867 95.200,243.600 95.467,243.600 96.000 C 243.600 96.444,243.333 96.800,243.000 96.800 C 242.667 96.800,242.400 97.156,242.400 97.600 C 242.400 98.267,242.133 98.400,240.800 98.400 C 239.467 98.400,239.200 98.533,239.200 99.200 C 239.200 99.994,238.933 100.000,200.800 100.000 C 162.667 100.000,162.400 99.994,162.400 99.200 C 162.400 98.533,162.133 98.400,160.800 98.400 C 159.467 98.400,159.200 98.267,159.200 97.600 C 159.200 97.156,158.933 96.800,158.600 96.800 C 158.267 96.800,158.000 96.444,158.000 96.000 C 158.000 95.467,157.733 95.200,157.200 95.200 C 156.667 95.200,156.400 94.933,156.400 94.400 C 156.400 93.867,156.133 93.600,155.600 93.600 C 155.067 93.600,154.800 93.333,154.800 92.800 C 154.800 92.267,154.533 92.000,154.000 92.000 C 153.352 92.000,153.200 91.733,153.200 90.600 C 153.200 89.467,153.048 89.200,152.400 89.200 C 151.605 89.200,151.600 88.933,151.600 44.600 L 151.600 0.000 147.600 0.000 L 143.600 0.000 143.600 45.400 M292.400 46.000 C 292.400 86.622,292.470 92.000,293.000 92.000 C 293.483 92.000,293.600 92.622,293.600 95.200 C 293.600 98.133,293.667 98.400,294.400 98.400 C 295.067 98.400,295.200 98.667,295.200 100.000 C 295.200 101.333,295.333 101.600,296.000 101.600 C 296.533 101.600,296.800 101.867,296.800 102.400 C 296.800 102.933,297.067 103.200,297.600 103.200 C 298.133 103.200,298.400 103.467,298.400 104.000 C 298.400 104.533,298.667 104.800,299.200 104.800 C 299.733 104.800,300.000 105.067,300.000 105.600 C 300.000 106.267,300.267 106.400,301.600 106.400 C 302.933 106.400,303.200 106.533,303.200 107.200 C 303.200 107.929,303.467 108.000,306.200 108.000 C 308.600 108.000,309.200 108.120,309.200 108.600 C 309.200 109.130,314.511 109.200,354.600 109.200 L 400.000 109.200 400.000 107.000 L 400.000 104.800 355.400 104.800 C 311.067 104.800,310.800 104.795,310.800 104.000 C 310.800 103.352,310.533 103.200,309.400 103.200 C 308.267 103.200,308.000 103.048,308.000 102.400 C 308.000 101.867,307.733 101.600,307.200 101.600 C 306.667 101.600,306.400 101.333,306.400 100.800 C 306.400 100.133,306.133 100.000,304.800 100.000 C 303.467 100.000,303.200 99.867,303.200 99.200 C 303.200 98.667,302.933 98.400,302.400 98.400 C 301.733 98.400,301.600 98.133,301.600 96.800 C 301.600 95.467,301.467 95.200,300.800 95.200 C 300.267 95.200,300.000 94.933,300.000 94.400 C 300.000 93.867,299.733 93.600,299.200 93.600 C 298.552 93.600,298.400 93.333,298.400 92.200 C 298.400 91.067,298.248 90.800,297.600 90.800 C 296.805 90.800,296.800 90.533,296.800 45.400 L 296.800 0.000 294.600 0.000 L 292.400 0.000 292.400 46.000 M0.000 200.800 L 0.000 251.600 44.600 251.600 C 88.933 251.600,89.200 251.595,89.200 250.800 C 89.200 250.133,89.467 250.000,90.800 250.000 C 92.133 250.000,92.400 249.867,92.400 249.200 C 92.400 248.756,92.667 248.400,93.000 248.400 C 93.333 248.400,93.600 248.044,93.600 247.600 C 93.600 247.067,93.867 246.800,94.400 246.800 C 94.933 246.800,95.200 246.533,95.200 246.000 C 95.200 245.467,95.467 245.200,96.000 245.200 C 96.533 245.200,96.800 244.933,96.800 244.400 C 96.800 243.867,97.067 243.600,97.600 243.600 C 98.133 243.600,98.400 243.333,98.400 242.800 C 98.400 242.267,98.667 242.000,99.200 242.000 C 99.848 242.000,100.000 241.733,100.000 240.600 C 100.000 239.467,100.152 239.200,100.800 239.200 C 101.594 239.200,101.600 238.933,101.600 200.800 C 101.600 162.667,101.594 162.400,100.800 162.400 C 100.133 162.400,100.000 162.133,100.000 160.800 C 100.000 159.467,99.867 159.200,99.200 159.200 C 98.756 159.200,98.400 158.933,98.400 158.600 C 98.400 158.267,98.044 158.000,97.600 158.000 C 97.067 158.000,96.800 157.733,96.800 157.200 C 96.800 156.667,96.533 156.400,96.000 156.400 C 95.467 156.400,95.200 156.133,95.200 155.600 C 95.200 155.067,94.933 154.800,94.400 154.800 C 93.867 154.800,93.600 154.533,93.600 154.000 C 93.600 153.556,93.333 153.200,93.000 153.200 C 92.667 153.200,92.400 152.844,92.400 152.400 C 92.400 151.733,92.133 151.600,90.800 151.600 C 89.467 151.600,89.200 151.467,89.200 150.800 C 89.200 150.005,88.933 150.000,44.600 150.000 L 0.000 150.000 0.000 200.800 M312.400 150.800 C 312.400 151.467,312.133 151.600,310.800 151.600 C 309.467 151.600,309.200 151.733,309.200 152.400 C 309.200 152.844,308.933 153.200,308.600 153.200 C 308.267 153.200,308.000 153.556,308.000 154.000 C 308.000 154.533,307.733 154.800,307.200 154.800 C 306.667 154.800,306.400 155.067,306.400 155.600 C 306.400 156.133,306.133 156.400,305.600 156.400 C 305.067 156.400,304.800 156.667,304.800 157.200 C 304.800 157.733,304.533 158.000,304.000 158.000 C 303.556 158.000,303.200 158.267,303.200 158.600 C 303.200 158.933,302.844 159.200,302.400 159.200 C 301.733 159.200,301.600 159.467,301.600 160.800 C 301.600 162.133,301.467 162.400,300.800 162.400 C 300.006 162.400,300.000 162.667,300.000 200.800 C 300.000 238.933,300.006 239.200,300.800 239.200 C 301.448 239.200,301.600 239.467,301.600 240.600 C 301.600 241.733,301.752 242.000,302.400 242.000 C 302.933 242.000,303.200 242.267,303.200 242.800 C 303.200 243.333,303.467 243.600,304.000 243.600 C 304.533 243.600,304.800 243.867,304.800 244.400 C 304.800 244.933,305.067 245.200,305.600 245.200 C 306.133 245.200,306.400 245.467,306.400 246.000 C 306.400 246.533,306.667 246.800,307.200 246.800 C 307.733 246.800,308.000 247.067,308.000 247.600 C 308.000 248.044,308.267 248.400,308.600 248.400 C 308.933 248.400,309.200 248.756,309.200 249.200 C 309.200 249.867,309.467 250.000,310.800 250.000 C 312.133 250.000,312.400 250.133,312.400 250.800 C 312.400 251.595,312.667 251.600,356.200 251.600 L 400.000 251.600 400.000 200.800 L 400.000 150.000 356.200 150.000 C 312.667 150.000,312.400 150.005,312.400 150.800 M0.000 350.000 L 0.000 400.000 50.800 400.000 L 101.600 400.000 101.600 356.200 C 101.600 312.667,101.595 312.400,100.800 312.400 C 100.133 312.400,100.000 312.133,100.000 310.800 C 100.000 309.467,99.867 309.200,99.200 309.200 C 98.756 309.200,98.400 308.933,98.400 308.600 C 98.400 308.267,98.044 308.000,97.600 308.000 C 97.067 308.000,96.800 307.733,96.800 307.200 C 96.800 306.667,96.533 306.400,96.000 306.400 C 95.467 306.400,95.200 306.133,95.200 305.600 C 95.200 305.067,94.933 304.800,94.400 304.800 C 93.867 304.800,93.600 304.533,93.600 304.000 C 93.600 303.556,93.333 303.200,93.000 303.200 C 92.667 303.200,92.400 302.844,92.400 302.400 C 92.400 301.733,92.133 301.600,90.800 301.600 C 89.467 301.600,89.200 301.467,89.200 300.800 C 89.200 300.005,88.933 300.000,44.600 300.000 L 0.000 300.000 0.000 350.000 M162.400 300.800 C 162.400 301.467,162.133 301.600,160.800 301.600 C 159.467 301.600,159.200 301.733,159.200 302.400 C 159.200 302.844,158.933 303.200,158.600 303.200 C 158.267 303.200,158.000 303.556,158.000 304.000 C 158.000 304.533,157.733 304.800,157.200 304.800 C 156.667 304.800,156.400 305.067,156.400 305.600 C 156.400 306.133,156.133 306.400,155.600 306.400 C 155.067 306.400,154.800 306.667,154.800 307.200 C 154.800 307.733,154.533 308.000,154.000 308.000 C 153.556 308.000,153.200 308.267,153.200 308.600 C 153.200 308.933,152.844 309.200,152.400 309.200 C 151.733 309.200,151.600 309.467,151.600 310.800 C 151.600 312.133,151.467 312.400,150.800 312.400 C 150.005 312.400,150.000 312.667,150.000 356.200 L 150.000 400.000 200.800 400.000 L 251.600 400.000 251.600 356.200 C 251.600 312.667,251.595 312.400,250.800 312.400 C 250.133 312.400,250.000 312.133,250.000 310.800 C 250.000 309.467,249.867 309.200,249.200 309.200 C 248.756 309.200,248.400 308.933,248.400 308.600 C 248.400 308.267,248.044 308.000,247.600 308.000 C 247.067 308.000,246.800 307.733,246.800 307.200 C 246.800 306.667,246.533 306.400,246.000 306.400 C 245.467 306.400,245.200 306.133,245.200 305.600 C 245.200 305.067,244.933 304.800,244.400 304.800 C 243.867 304.800,243.600 304.533,243.600 304.000 C 243.600 303.556,243.333 303.200,243.000 303.200 C 242.667 303.200,242.400 302.844,242.400 302.400 C 242.400 301.733,242.133 301.600,240.800 301.600 C 239.467 301.600,239.200 301.467,239.200 300.800 C 239.200 300.006,238.933 300.000,200.800 300.000 C 162.667 300.000,162.400 300.006,162.400 300.800 M312.400 300.800 C 312.400 301.467,312.133 301.600,310.800 301.600 C 309.467 301.600,309.200 301.733,309.200 302.400 C 309.200 302.844,308.933 303.200,308.600 303.200 C 308.267 303.200,308.000 303.556,308.000 304.000 C 308.000 304.533,307.733 304.800,307.200 304.800 C 306.667 304.800,306.400 305.067,306.400 305.600 C 306.400 306.133,306.133 306.400,305.600 306.400 C 305.067 306.400,304.800 306.667,304.800 307.200 C 304.800 307.733,304.533 308.000,304.000 308.000 C 303.556 308.000,303.200 308.267,303.200 308.600 C 303.200 308.933,302.844 309.200,302.400 309.200 C 301.733 309.200,301.600 309.467,301.600 310.800 C 301.600 312.133,301.467 312.400,300.800 312.400 C 300.005 312.400,300.000 312.667,300.000 356.200 L 300.000 400.000 350.000 400.000 L 400.000 400.000 400.000 350.000 L 400.000 300.000 356.200 300.000 C 312.667 300.000,312.400 300.005,312.400 300.800 " stroke="none" fill="#cccccc" fill-rule="evenodd"></path><path id="path1" d="M103.200 45.400 C 103.200 90.533,103.195 90.800,102.400 90.800 C 101.752 90.800,101.600 91.067,101.600 92.200 C 101.600 93.333,101.448 93.600,100.800 93.600 C 100.267 93.600,100.000 93.867,100.000 94.400 C 100.000 94.933,99.733 95.200,99.200 95.200 C 98.533 95.200,98.400 95.467,98.400 96.800 L 98.400 98.400 96.800 98.400 C 95.467 98.400,95.200 98.533,95.200 99.200 C 95.200 99.733,94.933 100.000,94.400 100.000 C 93.867 100.000,93.600 100.267,93.600 100.800 C 93.600 101.448,93.333 101.600,92.200 101.600 C 91.067 101.600,90.800 101.752,90.800 102.400 C 90.800 103.195,90.533 103.200,45.400 103.200 L 0.000 103.200 0.000 126.600 L 0.000 150.000 44.600 150.000 C 88.933 150.000,89.200 150.005,89.200 150.800 C 89.200 151.467,89.467 151.600,90.800 151.600 C 92.133 151.600,92.400 151.733,92.400 152.400 C 92.400 152.844,92.667 153.200,93.000 153.200 C 93.333 153.200,93.600 153.556,93.600 154.000 C 93.600 154.533,93.867 154.800,94.400 154.800 C 94.933 154.800,95.200 155.067,95.200 155.600 C 95.200 156.133,95.467 156.400,96.000 156.400 C 96.533 156.400,96.800 156.667,96.800 157.200 C 96.800 157.733,97.067 158.000,97.600 158.000 C 98.044 158.000,98.400 158.267,98.400 158.600 C 98.400 158.933,98.756 159.200,99.200 159.200 C 99.867 159.200,100.000 159.467,100.000 160.800 C 100.000 162.133,100.133 162.400,100.800 162.400 C 101.594 162.400,101.600 162.667,101.600 200.800 C 101.600 238.933,101.594 239.200,100.800 239.200 C 100.152 239.200,100.000 239.467,100.000 240.600 C 100.000 241.733,99.848 242.000,99.200 242.000 C 98.667 242.000,98.400 242.267,98.400 242.800 C 98.400 243.333,98.133 243.600,97.600 243.600 C 97.067 243.600,96.800 243.867,96.800 244.400 C 96.800 244.933,96.533 245.200,96.000 245.200 C 95.467 245.200,95.200 245.467,95.200 246.000 C 95.200 246.533,94.933 246.800,94.400 246.800 C 93.867 246.800,93.600 247.067,93.600 247.600 C 93.600 248.044,93.333 248.400,93.000 248.400 C 92.667 248.400,92.400 248.756,92.400 249.200 C 92.400 249.867,92.133 250.000,90.800 250.000 C 89.467 250.000,89.200 250.133,89.200 250.800 C 89.200 251.595,88.933 251.600,44.600 251.600 L 0.000 251.600 0.000 275.800 L 0.000 300.000 44.600 300.000 C 88.933 300.000,89.200 300.005,89.200 300.800 C 89.200 301.467,89.467 301.600,90.800 301.600 C 92.133 301.600,92.400 301.733,92.400 302.400 C 92.400 302.844,92.667 303.200,93.000 303.200 C 93.333 303.200,93.600 303.556,93.600 304.000 C 93.600 304.533,93.867 304.800,94.400 304.800 C 94.933 304.800,95.200 305.067,95.200 305.600 C 95.200 306.133,95.467 306.400,96.000 306.400 C 96.533 306.400,96.800 306.667,96.800 307.200 C 96.800 307.733,97.067 308.000,97.600 308.000 C 98.044 308.000,98.400 308.267,98.400 308.600 C 98.400 308.933,98.756 309.200,99.200 309.200 C 99.867 309.200,100.000 309.467,100.000 310.800 C 100.000 312.133,100.133 312.400,100.800 312.400 C 101.595 312.400,101.600 312.667,101.600 356.200 L 101.600 400.000 125.800 400.000 L 150.000 400.000 150.000 356.200 C 150.000 312.667,150.005 312.400,150.800 312.400 C 151.467 312.400,151.600 312.133,151.600 310.800 C 151.600 309.467,151.733 309.200,152.400 309.200 C 152.844 309.200,153.200 308.933,153.200 308.600 C 153.200 308.267,153.556 308.000,154.000 308.000 C 154.533 308.000,154.800 307.733,154.800 307.200 C 154.800 306.667,155.067 306.400,155.600 306.400 C 156.133 306.400,156.400 306.133,156.400 305.600 C 156.400 305.067,156.667 304.800,157.200 304.800 C 157.733 304.800,158.000 304.533,158.000 304.000 C 158.000 303.556,158.267 303.200,158.600 303.200 C 158.933 303.200,159.200 302.844,159.200 302.400 C 159.200 301.733,159.467 301.600,160.800 301.600 C 162.133 301.600,162.400 301.467,162.400 300.800 C 162.400 300.006,162.667 300.000,200.800 300.000 C 238.933 300.000,239.200 300.006,239.200 300.800 C 239.200 301.467,239.467 301.600,240.800 301.600 C 242.133 301.600,242.400 301.733,242.400 302.400 C 242.400 302.844,242.667 303.200,243.000 303.200 C 243.333 303.200,243.600 303.556,243.600 304.000 C 243.600 304.533,243.867 304.800,244.400 304.800 C 244.933 304.800,245.200 305.067,245.200 305.600 C 245.200 306.133,245.467 306.400,246.000 306.400 C 246.533 306.400,246.800 306.667,246.800 307.200 C 246.800 307.733,247.067 308.000,247.600 308.000 C 248.044 308.000,248.400 308.267,248.400 308.600 C 248.400 308.933,248.756 309.200,249.200 309.200 C 249.867 309.200,250.000 309.467,250.000 310.800 C 250.000 312.133,250.133 312.400,250.800 312.400 C 251.595 312.400,251.600 312.667,251.600 356.200 L 251.600 400.000 275.800 400.000 L 300.000 400.000 300.000 356.200 C 300.000 312.667,300.005 312.400,300.800 312.400 C 301.467 312.400,301.600 312.133,301.600 310.800 C 301.600 309.467,301.733 309.200,302.400 309.200 C 302.844 309.200,303.200 308.933,303.200 308.600 C 303.200 308.267,303.556 308.000,304.000 308.000 C 304.533 308.000,304.800 307.733,304.800 307.200 C 304.800 306.667,305.067 306.400,305.600 306.400 C 306.133 306.400,306.400 306.133,306.400 305.600 C 306.400 305.067,306.667 304.800,307.200 304.800 C 307.733 304.800,308.000 304.533,308.000 304.000 C 308.000 303.556,308.267 303.200,308.600 303.200 C 308.933 303.200,309.200 302.844,309.200 302.400 C 309.200 301.733,309.467 301.600,310.800 301.600 C 312.133 301.600,312.400 301.467,312.400 300.800 C 312.400 300.005,312.667 300.000,356.200 300.000 L 400.000 300.000 400.000 275.800 L 400.000 251.600 356.200 251.600 C 312.667 251.600,312.400 251.595,312.400 250.800 C 312.400 250.133,312.133 250.000,310.800 250.000 C 309.467 250.000,309.200 249.867,309.200 249.200 C 309.200 248.756,308.933 248.400,308.600 248.400 C 308.267 248.400,308.000 248.044,308.000 247.600 C 308.000 247.067,307.733 246.800,307.200 246.800 C 306.667 246.800,306.400 246.533,306.400 246.000 C 306.400 245.467,306.133 245.200,305.600 245.200 C 305.067 245.200,304.800 244.933,304.800 244.400 C 304.800 243.867,304.533 243.600,304.000 243.600 C 303.467 243.600,303.200 243.333,303.200 242.800 C 303.200 242.267,302.933 242.000,302.400 242.000 C 301.752 242.000,301.600 241.733,301.600 240.600 C 301.600 239.467,301.448 239.200,300.800 239.200 C 300.006 239.200,300.000 238.933,300.000 200.800 C 300.000 162.667,300.006 162.400,300.800 162.400 C 301.467 162.400,301.600 162.133,301.600 160.800 C 301.600 159.467,301.733 159.200,302.400 159.200 C 302.844 159.200,303.200 158.933,303.200 158.600 C 303.200 158.267,303.556 158.000,304.000 158.000 C 304.533 158.000,304.800 157.733,304.800 157.200 C 304.800 156.667,305.067 156.400,305.600 156.400 C 306.133 156.400,306.400 156.133,306.400 155.600 C 306.400 155.067,306.667 154.800,307.200 154.800 C 307.733 154.800,308.000 154.533,308.000 154.000 C 308.000 153.556,308.267 153.200,308.600 153.200 C 308.933 153.200,309.200 152.844,309.200 152.400 C 309.200 151.733,309.467 151.600,310.800 151.600 C 312.133 151.600,312.400 151.467,312.400 150.800 C 312.400 150.005,312.667 150.000,356.200 150.000 L 400.000 150.000 400.000 129.600 L 400.000 109.200 354.600 109.200 C 314.511 109.200,309.200 109.130,309.200 108.600 C 309.200 108.120,308.600 108.000,306.200 108.000 C 303.467 108.000,303.200 107.929,303.200 107.200 C 303.200 106.533,302.933 106.400,301.600 106.400 C 300.267 106.400,300.000 106.267,300.000 105.600 C 300.000 105.067,299.733 104.800,299.200 104.800 C 298.667 104.800,298.400 104.533,298.400 104.000 C 298.400 103.467,298.133 103.200,297.600 103.200 C 297.067 103.200,296.800 102.933,296.800 102.400 C 296.800 101.867,296.533 101.600,296.000 101.600 C 295.333 101.600,295.200 101.333,295.200 100.000 C 295.200 98.667,295.067 98.400,294.400 98.400 C 293.667 98.400,293.600 98.133,293.600 95.200 C 293.600 92.622,293.483 92.000,293.000 92.000 C 292.470 92.000,292.400 86.622,292.400 46.000 L 292.400 0.000 275.200 0.000 L 258.000 0.000 258.000 45.400 C 258.000 90.533,257.995 90.800,257.200 90.800 C 256.497 90.800,256.400 91.067,256.400 93.000 C 256.400 94.933,256.303 95.200,255.600 95.200 C 254.933 95.200,254.800 95.467,254.800 96.800 C 254.800 98.133,254.667 98.400,254.000 98.400 C 253.467 98.400,253.200 98.667,253.200 99.200 C 253.200 99.733,252.933 100.000,252.400 100.000 C 251.867 100.000,251.600 100.267,251.600 100.800 C 251.600 101.333,251.333 101.600,250.800 101.600 C 250.267 101.600,250.000 101.867,250.000 102.400 C 250.000 102.933,249.733 103.200,249.200 103.200 C 248.667 103.200,248.400 103.467,248.400 104.000 C 248.400 104.667,248.133 104.800,246.800 104.800 C 245.467 104.800,245.200 104.933,245.200 105.600 C 245.200 106.303,244.933 106.400,243.000 106.400 C 241.067 106.400,240.800 106.497,240.800 107.200 C 240.800 107.995,240.533 108.000,200.800 108.000 C 161.067 108.000,160.800 107.995,160.800 107.200 C 160.800 106.497,160.533 106.400,158.600 106.400 C 156.667 106.400,156.400 106.303,156.400 105.600 C 156.400 104.933,156.133 104.800,154.800 104.800 C 153.467 104.800,153.200 104.667,153.200 104.000 C 153.200 103.467,152.933 103.200,152.400 103.200 C 151.867 103.200,151.600 102.933,151.600 102.400 C 151.600 101.867,151.333 101.600,150.800 101.600 C 150.267 101.600,150.000 101.333,150.000 100.800 C 150.000 100.267,149.733 100.000,149.200 100.000 C 148.667 100.000,148.400 99.733,148.400 99.200 C 148.400 98.667,148.133 98.400,147.600 98.400 C 146.933 98.400,146.800 98.133,146.800 96.800 C 146.800 95.467,146.667 95.200,146.000 95.200 C 145.297 95.200,145.200 94.933,145.200 93.000 C 145.200 91.067,145.103 90.800,144.400 90.800 C 143.605 90.800,143.600 90.533,143.600 45.400 L 143.600 0.000 123.400 0.000 L 103.200 0.000 103.200 45.400 " stroke="none" fill="#fcfcfc" fill-rule="evenodd"></path><path id="path2" d="M0.000 45.400 L 0.000 90.800 44.600 90.800 C 88.933 90.800,89.200 90.795,89.200 90.000 C 89.200 89.467,89.467 89.200,90.000 89.200 C 90.795 89.200,90.800 88.933,90.800 44.600 L 90.800 0.000 45.400 0.000 L 0.000 0.000 0.000 45.400 M151.600 44.600 C 151.600 88.933,151.605 89.200,152.400 89.200 C 153.048 89.200,153.200 89.467,153.200 90.600 C 153.200 91.733,153.352 92.000,154.000 92.000 C 154.533 92.000,154.800 92.267,154.800 92.800 C 154.800 93.333,155.067 93.600,155.600 93.600 C 156.133 93.600,156.400 93.867,156.400 94.400 C 156.400 94.933,156.667 95.200,157.200 95.200 C 157.733 95.200,158.000 95.467,158.000 96.000 C 158.000 96.444,158.267 96.800,158.600 96.800 C 158.933 96.800,159.200 97.156,159.200 97.600 C 159.200 98.267,159.467 98.400,160.800 98.400 C 162.133 98.400,162.400 98.533,162.400 99.200 C 162.400 99.994,162.667 100.000,200.800 100.000 C 238.933 100.000,239.200 99.994,239.200 99.200 C 239.200 98.533,239.467 98.400,240.800 98.400 C 242.133 98.400,242.400 98.267,242.400 97.600 C 242.400 97.156,242.667 96.800,243.000 96.800 C 243.333 96.800,243.600 96.444,243.600 96.000 C 243.600 95.467,243.867 95.200,244.400 95.200 C 244.933 95.200,245.200 94.933,245.200 94.400 C 245.200 93.867,245.467 93.600,246.000 93.600 C 246.533 93.600,246.800 93.333,246.800 92.800 C 246.800 92.267,247.067 92.000,247.600 92.000 C 248.248 92.000,248.400 91.733,248.400 90.600 C 248.400 89.467,248.552 89.200,249.200 89.200 C 249.995 89.200,250.000 88.933,250.000 44.600 L 250.000 0.000 246.800 0.000 L 243.600 0.000 243.600 44.600 C 243.600 83.978,243.530 89.200,243.000 89.200 C 242.667 89.200,242.400 89.556,242.400 90.000 C 242.400 90.533,242.133 90.800,241.600 90.800 C 241.156 90.800,240.800 91.067,240.800 91.400 C 240.800 91.733,240.444 92.000,240.000 92.000 C 239.467 92.000,239.200 92.267,239.200 92.800 C 239.200 93.594,238.933 93.600,200.800 93.600 C 162.667 93.600,162.400 93.594,162.400 92.800 C 162.400 92.267,162.133 92.000,161.600 92.000 C 161.156 92.000,160.800 91.733,160.800 91.400 C 160.800 91.067,160.444 90.800,160.000 90.800 C 159.467 90.800,159.200 90.533,159.200 90.000 C 159.200 89.556,158.933 89.200,158.600 89.200 C 158.070 89.200,158.000 83.978,158.000 44.600 L 158.000 0.000 154.800 0.000 L 151.600 0.000 151.600 44.600 M296.800 45.400 C 296.800 90.533,296.805 90.800,297.600 90.800 C 298.248 90.800,298.400 91.067,298.400 92.200 C 298.400 93.333,298.552 93.600,299.200 93.600 C 299.733 93.600,300.000 93.867,300.000 94.400 C 300.000 94.933,300.267 95.200,300.800 95.200 C 301.467 95.200,301.600 95.467,301.600 96.800 C 301.600 98.133,301.733 98.400,302.400 98.400 C 302.933 98.400,303.200 98.667,303.200 99.200 C 303.200 99.867,303.467 100.000,304.800 100.000 C 306.133 100.000,306.400 100.133,306.400 100.800 C 306.400 101.333,306.667 101.600,307.200 101.600 C 307.733 101.600,308.000 101.867,308.000 102.400 C 308.000 103.048,308.267 103.200,309.400 103.200 C 310.533 103.200,310.800 103.352,310.800 104.000 C 310.800 104.795,311.067 104.800,355.400 104.800 L 400.000 104.800 400.000 102.400 L 400.000 100.000 355.400 100.000 C 311.067 100.000,310.800 99.995,310.800 99.200 C 310.800 98.667,310.533 98.400,310.000 98.400 C 309.467 98.400,309.200 98.133,309.200 97.600 C 309.200 97.156,308.933 96.800,308.600 96.800 C 308.267 96.800,308.000 96.444,308.000 96.000 C 308.000 95.467,307.733 95.200,307.200 95.200 C 306.667 95.200,306.400 94.933,306.400 94.400 C 306.400 93.867,306.133 93.600,305.600 93.600 C 305.067 93.600,304.800 93.333,304.800 92.800 C 304.800 92.267,304.533 92.000,304.000 92.000 C 303.556 92.000,303.200 91.733,303.200 91.400 C 303.200 91.067,302.844 90.800,302.400 90.800 C 301.605 90.800,301.600 90.533,301.600 45.400 L 301.600 0.000 299.200 0.000 L 296.800 0.000 296.800 45.400 " stroke="none" fill="#bcbcbc" fill-rule="evenodd"></path><path id="path3" d="M309.200 44.600 C 309.200 88.933,309.205 89.200,310.000 89.200 C 310.533 89.200,310.800 89.467,310.800 90.000 C 310.800 90.533,311.067 90.800,311.600 90.800 C 312.044 90.800,312.400 91.067,312.400 91.400 C 312.400 91.930,317.533 92.000,356.200 92.000 L 400.000 92.000 400.000 46.000 L 400.000 0.000 354.600 0.000 L 309.200 0.000 309.200 44.600 " stroke="none" fill="#545454" fill-rule="evenodd"></path><path id="path4" d="M158.000 44.600 C 158.000 83.978,158.070 89.200,158.600 89.200 C 158.933 89.200,159.200 89.556,159.200 90.000 C 159.200 90.533,159.467 90.800,160.000 90.800 C 160.444 90.800,160.800 91.067,160.800 91.400 C 160.800 91.733,161.156 92.000,161.600 92.000 C 162.133 92.000,162.400 92.267,162.400 92.800 C 162.400 93.594,162.667 93.600,200.800 93.600 C 238.933 93.600,239.200 93.594,239.200 92.800 C 239.200 92.267,239.467 92.000,240.000 92.000 C 240.444 92.000,240.800 91.733,240.800 91.400 C 240.800 91.067,241.156 90.800,241.600 90.800 C 242.133 90.800,242.400 90.533,242.400 90.000 C 242.400 89.556,242.667 89.200,243.000 89.200 C 243.530 89.200,243.600 83.978,243.600 44.600 L 243.600 0.000 200.800 0.000 L 158.000 0.000 158.000 44.600 M301.600 45.400 C 301.600 90.533,301.605 90.800,302.400 90.800 C 302.844 90.800,303.200 91.067,303.200 91.400 C 303.200 91.733,303.556 92.000,304.000 92.000 C 304.533 92.000,304.800 92.267,304.800 92.800 C 304.800 93.333,305.067 93.600,305.600 93.600 C 306.133 93.600,306.400 93.867,306.400 94.400 C 306.400 94.933,306.667 95.200,307.200 95.200 C 307.733 95.200,308.000 95.467,308.000 96.000 C 308.000 96.444,308.267 96.800,308.600 96.800 C 308.933 96.800,309.200 97.156,309.200 97.600 C 309.200 98.133,309.467 98.400,310.000 98.400 C 310.533 98.400,310.800 98.667,310.800 99.200 C 310.800 99.995,311.067 100.000,355.400 100.000 L 400.000 100.000 400.000 96.000 L 400.000 92.000 356.200 92.000 C 317.533 92.000,312.400 91.930,312.400 91.400 C 312.400 91.067,312.044 90.800,311.600 90.800 C 311.067 90.800,310.800 90.533,310.800 90.000 C 310.800 89.467,310.533 89.200,310.000 89.200 C 309.205 89.200,309.200 88.933,309.200 44.600 L 309.200 0.000 305.400 0.000 L 301.600 0.000 301.600 45.400 " stroke="none" fill="#949494" fill-rule="evenodd"></path></g></svg>